HIERARCHY
ROOT Hips
{
	OFFSET 0.000000 0.000000 0.000000
	CHANNELS 6 Xposition Yposition Zposition Zrotation Yrotation Xrotation 
	JOINT LHipJoint
	{
		OFFSET 0.000000 0.000000 0.000000
		CHANNELS 3 Zrotation Yrotation Xrotation
		JOINT LeftUpLeg
		{
			OFFSET 1.363060 -1.794630 0.839290
			CHANNELS 3 Zrotation Yrotation Xrotation
			JOINT LeftLeg
			{
				OFFSET 2.448110 -6.726130 0.000000
				CHANNELS 3 Zrotation Yrotation Xrotation
				JOINT LeftFoot
				{
					OFFSET 2.562200 -7.039590 0.000000
					CHANNELS 3 Zrotation Yrotation Xrotation
					JOINT LeftToeBase
					{
						OFFSET 0.157640 -0.433110 2.322550
						CHANNELS 3 Zrotation Yrotation Xrotation
						End Site
						{
							OFFSET 0.000000 0.000000 0.000000
						}
					}
				}
			}
		}
	}
	JOINT RHipJoint
	{
		OFFSET 0.000000 0.000000 0.000000
		CHANNELS 3 Zrotation Yrotation Xrotation
		JOINT RightUpLeg
		{
			OFFSET -1.305520 -1.794630 0.839290
			CHANNELS 3 Zrotation Yrotation Xrotation
			JOINT RightLeg
			{
				OFFSET -2.542530 -6.985550 0.000000
				CHANNELS 3 Zrotation Yrotation Xrotation
				JOINT RightFoot
				{
					OFFSET -2.568260 -7.056230 0.000000
					CHANNELS 3 Zrotation Yrotation Xrotation
					JOINT RightToeBase
					{
						OFFSET -0.164730 -0.452590 2.363150
						CHANNELS 3 Zrotation Yrotation Xrotation
						End Site
						{
							OFFSET 0.000000 0.000000 0.000000
						}
					}
				}
			}
		}
	}
}
MOTION
Frames: 22
Frame Time: 0.008333
-1.974970 16.673630 0.118503 7.017485 63.578392 6.468156 -10.312051 0.844734 2.558345 -1.158545 -0.361552 -24.097413 -1.493329 0.785374 22.736135 0.345272 1.277960 0.658301 0.239800 0.000001 -41.196100 10.521255 -2.816868 -2.536361 3.632978 -11.972936 2.146166 0.962458 -2.998518 39.679469 -0.603305 -0.907552 -10.423647 0.095200 -0.000000 -50.296100
-1.822824 16.656835 0.157375 7.319120 62.569965 6.588870 -10.321465 0.948317 2.331202 -1.559856 0.772621 -23.904644 -1.489235 0.854848 23.769619 0.370956 1.475281 0.703329 0.256900 0.000000 -41.124900 10.764863 -2.826337 -2.578188 2.655498 -12.556401 0.856738 0.667217 -3.206749 42.563748 -0.638514 -1.424534 -9.129035 0.055800 -0.000001 -51.720900
-1.674043 16.639840 0.197608 7.597210 61.556846 6.699338 -10.323864 1.045938 2.101613 -1.953051 1.954323 -23.734228 -1.500532 0.915342 24.796092 0.395274 1.658655 0.482573 0.264600 0.000000 -41.058100 10.999764 -2.810038 -2.615479 1.748929 -13.121098 -0.530029 0.370151 -3.394791 45.471502 -0.731970 -2.249647 -8.014710 0.014700 -0.000000 -51.202300
-1.528373 16.622956 0.238862 7.830580 60.528849 6.782808 -10.320758 1.138345 1.876261 -2.318505 3.145674 -23.568164 -1.525026 0.967256 25.799972 0.418094 1.827405 0.014209 0.261199 0.000000 -41.032200 11.220151 -2.768632 -2.648066 0.932391 -13.656577 -1.998360 0.088815 -3.563050 48.357408 -0.871525 -3.313697 -7.208873 -0.032499 0.000000 -48.219300
-1.385486 16.606468 0.280828 8.004192 59.476555 6.826815 -10.313999 1.226769 1.660731 -2.642378 4.314897 -23.387298 -1.559582 1.011077 26.763122 0.440559 1.988656 -0.663236 0.246800 0.000000 -41.079300 11.421143 -2.704750 -2.676202 0.218850 -14.159881 -3.533436 -0.162128 -3.713392 51.165257 -1.040903 -4.524086 -6.814161 -0.075000 -0.000000 -42.878500
-1.245022 16.590736 0.323321 8.108507 58.392766 6.823361 -10.305744 1.312533 1.459318 -2.915371 5.438498 -23.174650 -1.600455 1.047300 27.666935 0.464735 2.156064 -1.497624 0.222500 0.000000 -41.220000 11.598613 -2.622471 -2.699753 -0.381438 -14.630652 -5.121415 -0.371795 -3.848151 53.834082 -1.222067 -5.773050 -6.900090 -0.087700 -0.000000 -35.505600
-1.106593 16.576161 0.366236 8.139752 57.272852 6.769711 -10.298008 1.396528 1.274411 -3.132658 6.500166 -22.916680 -1.643676 1.076487 28.494113 0.493207 2.348375 -2.430267 0.190000 -0.000000 -41.460300 11.750080 -2.525949 -2.716339 -0.859757 -15.063697 -6.747640 -0.538982 -3.968184 56.289428 -1.400227 -6.971005 -7.388729 -0.052200 -0.000001 -27.596200
-0.969996 16.563014 0.409613 8.099325 56.115738 6.668082 -10.292706 1.479259 1.106653 -3.292724 7.492888 -22.606139 -1.685548 1.099337 29.231707 0.528355 2.584314 -3.403243 0.150400 0.000000 -41.792300 11.874257 -2.419473 -2.722593 -1.207042 -15.450238 -8.399983 -0.666074 -4.073560 58.477914 -1.562202 -8.033299 -8.153433 0.036800 -0.000000 -20.576400
-0.835085 16.551556 0.453649 7.993549 54.923639 6.523823 -10.291411 1.561186 0.955367 -3.397407 8.417661 -22.240432 -1.723005 1.116653 29.871750 0.571989 2.879948 -4.365240 0.104700 -0.000000 -42.196100 11.970849 -2.307180 -2.716858 -1.417686 -15.787964 -10.069476 -0.754803 -4.164422 60.375524 -1.695531 -8.879249 -9.095066 0.174900 -0.000000 -15.189500
-0.701941 16.541855 0.498667 7.834972 53.703068 6.344147 -10.295089 1.643005 0.818985 -3.451578 9.281737 -21.818380 -1.753883 1.129167 30.410644 0.624997 3.245554 -5.274993 0.053000 -0.000000 -42.644899 12.040142 -2.192500 -2.702418 -1.494673 -16.092679 -11.750200 -0.800289 -4.242284 61.987740 -1.788498 -9.427888 -10.247301 0.365200 0.000000 -10.822999
-0.570756 16.533903 0.545018 7.639663 52.463929 6.137254 -10.303751 1.725100 0.694015 -3.462531 10.095944 -21.338625 -1.777114 1.137708 30.847792 0.687320 3.684457 -6.102879 -0.004200 0.000000 -43.109800 12.083894 -2.077162 -2.682368 -1.444771 -16.378442 -13.431199 -0.803485 -4.307459 63.309907 -1.835926 -9.646310 -11.542916 0.586500 0.000000 -7.436900
-0.441867 16.527625 0.593078 7.425154 51.217306 5.910803 -10.316409 1.807972 0.575870 -3.438755 10.874947 -20.799413 -1.792888 1.143052 31.185084 0.757826 4.191148 -6.832181 -0.066200 0.000000 -43.566100 12.104793 -1.961603 -2.661794 -1.279949 -16.664810 -15.100342 -0.764312 -4.360779 64.347687 -1.837350 -9.529168 -12.948960 0.815800 0.000001 -4.634000
-0.315661 16.522888 0.643100 7.207863 49.975256 5.670561 -10.331691 1.891888 0.459452 -3.387896 11.634482 -20.198462 -1.802412 1.145830 31.424952 0.834345 4.751151 -7.457031 -0.131600 -0.000001 -43.996300 12.106099 -1.845313 -2.644609 -1.013309 -16.966167 -16.743454 -0.687291 -4.402459 65.104371 -1.798322 -9.114627 -14.376222 1.019600 0.000000 -2.368000
-0.192524 16.519544 0.695287 7.001750 48.748448 5.420687 -10.347860 1.977198 0.339635 -3.316571 12.391418 -19.533382 -1.807752 1.146539 31.570489 0.913908 5.342980 -7.980789 -0.198600 0.000000 -44.393700 12.091408 -1.727247 -2.634389 -0.659034 -17.294718 -18.347087 -0.579091 -4.432876 65.589980 -1.729094 -8.473415 -15.740660 1.172200 -0.000001 -0.637700
-0.072797 16.517409 0.749740 6.817588 47.545430 5.163550 -10.363130 2.064209 0.212046 -3.229509 13.161203 -18.802508 -1.811491 1.145487 31.624736 0.992997 5.940261 -8.413634 -0.265500 -0.000000 -44.760400 12.064146 -1.606061 -2.634077 -0.229773 -17.659785 -19.901362 -0.448210 -4.452560 65.821020 -1.643667 -7.703117 -16.972748 -178.736700 -0.000000 -0.552200
0.043291 16.516284 0.806438 6.662263 46.372503 4.900044 -10.376303 2.153297 0.074014 -3.129180 13.956196 -18.005030 -1.816125 1.142683 31.590073 1.068014 6.515807 -8.768455 -0.330400 -0.000001 -45.107600 12.026836 -1.480854 -2.645469 0.263550 -18.067919 -21.400000 -0.303861 -4.462123 65.819202 -1.558186 -6.917400 -18.027570 -178.699300 -0.000000 -1.185800
0.155698 16.516013 0.865338 6.538293 45.233241 4.630763 -10.386382 2.244806 -0.075763 -3.016228 14.785310 -17.142119 -1.823899 1.138012 31.469183 1.135742 7.044980 -9.059750 -0.391900 -0.000001 -45.449699 11.981162 -1.350959 -2.669940 0.814045 -18.523688 -22.842341 -0.153782 -4.462423 65.611590 -1.489133 -6.229976 -18.902175 -178.691100 0.000000 -1.375700
0.264503 16.516424 0.926332 6.445035 44.128362 4.356288 -10.393025 2.339035 -0.236454 -2.889514 15.651380 -16.217179 -1.836259 1.131174 31.264838 1.193709 7.508740 -9.299311 -0.448799 -0.000000 -45.802700 11.927558 -1.216466 -2.707937 1.418543 -19.029828 -24.231838 -0.003645 -4.454320 65.226506 -1.451582 -5.741469 -19.623639 -178.680700 0.000000 -1.269000
0.369955 16.517368 0.989280 6.378662 43.057702 4.076984 -10.396773 2.436148 -0.405169 -2.746493 16.551235 -15.235890 -1.853603 1.121738 30.980455 1.240619 7.896817 -9.495441 -0.500200 0.000001 -46.180400 11.864930 -1.078516 -2.758772 2.078152 -19.586713 -25.575145 0.143933 -4.438497 64.690769 -1.457614 -5.524538 -20.245737 -178.637199 -0.000000 -1.099999
0.472382 16.518723 1.054091 6.333008 42.019596 3.794577 -10.398328 2.536184 -0.577824 -2.584787 17.476241 -14.206593 -1.875496 1.109354 30.620960 1.276324 8.207286 -9.652707 -0.544900 0.000000 -46.590000 11.791551 -0.938858 -2.821079 2.796944 -20.192821 -26.881044 0.289018 -4.415412 64.027137 -1.515203 -5.615421 -20.832771 -178.536600 0.000001 -1.121100
0.572209 16.520368 1.120710 6.301065 41.011403 3.511847 -10.398724 2.639012 -0.749253 -2.402311 18.412243 -13.139750 -1.900614 1.093769 30.192555 1.301909 8.447543 -9.771667 -0.582100 0.000000 -47.031500 11.705166 -0.800124 -2.892435 3.581479 -20.843440 -28.158278 0.433450 -4.385095 63.252150 -1.627456 -6.010988 -21.443477 -178.364200 0.000001 -1.542200
0.669847 16.522164 1.189175 6.275214 40.031259 3.232610 -10.399006 2.744360 -0.914093 -2.198565 19.341460 -12.047522 -1.927099 1.075010 29.703630 1.319323 8.631438 -9.850560 -0.611000 -0.000001 -47.496400 11.603611 -0.665479 -2.969631 4.438745 -21.530846 -29.414575 0.579705 -4.347133 62.374823 -1.792132 -6.672002 -22.115713 -178.115600 -0.000000 -2.465200
